# xmcd CD database file
#
# Track frame offsets:
#	182
#	48307
#	140757
#	198790
#	266660
#
# Disc length: 3960 seconds
#
# Revision: 0
# Processed by: cddbd v1.5PL3 Copyright (c) Steve Scherf et al.
# Submitted via: CDex 1.50
#
DISCID=450f7605
DTITLE=Anthony Braxton Quartet - (Victoriaville) 1992
DYEAR=1992
DGENRE=Jazz
TTITLE0=Composition No 159+ (131+30+147)
TTITLE1=Composition No 148+ (108a+139+147)
TTITLE2=Composition No 161
TTITLE3=Composition No 158+ (108c+147)
TTITLE4=Impressions
EXTD=YEAR: 1992
EXTT0=
EXTT1=
EXTT2=
EXTT3=
EXTT4=
PLAYORDER=
